<svg width="24" height="25" viewBox="0 0 270 382" fill="none" xmlns="http://www.w3.org/2000/svg">
<path d="M216.5 0.497615C232 0.497615 247.5 0.497615 263 0.497615C265.4 0.497615 268.4 -0.302386 269 3.29761C269.5 6.29761 267 7.19762 265 8.29762C259.1 11.2976 253.3 14.6976 247.2 17.2976C241.1 19.8976 239.1 24.1976 239.1 30.5976C239.2 94.0976 239.2 157.598 239.2 221.098C239.2 248.098 228.4 269.898 207.1 286.198C166.3 317.298 125.3 348.098 84.4003 379.098C82.3003 380.698 80.4003 382.598 78.0003 379.998C75.8003 377.598 76.7003 375.198 78.6003 372.898C87.9003 361.598 97.1003 350.198 106.4 338.798C124.6 316.498 142.8 294.098 161.1 271.898C164.4 267.898 165.4 263.598 165.4 258.498C165.3 174.298 165.4 90.1976 165.2 5.99761C165.2 1.69761 166.1 0.397615 170.6 0.497615C185.8 0.697615 201.1 0.497615 216.5 0.497615Z" fill="#42145F"/>
<path d="M105.1 95.2005C105.1 122.701 105.2 150.201 105 177.701C105 183.501 107.2 187.001 112.2 189.601C119.4 193.401 126.4 197.601 133.5 201.501C135.1 202.401 136.2 203.501 135.7 205.501C135.2 207.501 133.9 208.601 131.7 208.601C112.7 208.101 93.7003 210.201 74.8003 207.601C49.7003 204.201 31.2003 182.401 31.1003 157.001C30.9003 115.201 31.0003 73.3005 31.1003 31.5005C31.1003 25.2005 28.8003 21.2005 23.2003 18.4005C16.6003 15.2005 10.4003 11.4005 3.90027 8.00051C1.80027 6.90051 0.200271 5.60051 0.800271 3.00051C1.40027 0.40051 3.50027 0.50051 5.60027 0.50051C35.3003 0.50051 64.9003 0.50051 94.6003 0.50051C101.5 0.50051 105.1 4.50051 105.1 12.1005C105.1 39.9005 105.1 67.5005 105.1 95.2005Z" fill="#42145F"/>
</svg>
